# xmcd
#
# Track frame offsets:
#	150
#	14998
#	40470
#	57692
#	78815
#	90212
#	100670
#	115168
#	130353
#	148401
#	162223
#	188847
#	201874
#	217372
#	228845
#	237219
#	255166
#	273165
#	291238
#	305010
#	323406
#	337330
#
# Disc length: 4649 seconds
#
# Revision: 1
# Processed by: cddbd v1.4PL0 Copyright (c) Steve Scherf et al.
# Submitted via: audiograbber 1.80
#
DISCID=48122716
DTITLE=Serrat - 24 paginas inolvidables
DYEAR=1900
DGENRE=
TTITLE0=Cantares
TTITLE1=Mi ninez
TTITLE2=La mujer que yo quiero
TTITLE3=Decir amigo
TTITLE4=He andado muchos caminos
TTITLE5=La saeta
TTITLE6=La paloma
TTITLE7=El titiritero
TTITLE8=Balada de otoño
TTITLE9=Senora
TTITLE10=Elegia
TTITLE11=Para la libertad
TTITLE12=Mediterraneo
TTITLE13=Tu nombre me sabe a yerba
TTITLE14=Aquellas pequenas cosas
TTITLE15=Poco antes de que de las diez
TTITLE16=De carton piedra
TTITLE17=Cancion infantil
TTITLE18=Poema de amor
TTITLE19=Penelope
TTITLE20=Lucia
TTITLE21=Fiesta
EXTD=
EXTT0=
EXTT1=
EXTT2=
EXTT3=
EXTT4=
EXTT5=
EXTT6=
EXTT7=
EXTT8=
EXTT9=
EXTT10=
EXTT11=
EXTT12=
EXTT13=
EXTT14=
EXTT15=
EXTT16=
EXTT17=
EXTT18=
EXTT19=
EXTT20=
EXTT21=
PLAYORDER=
